<svg width="77" height="22" viewBox="0 0 77 22" fill="none" xmlns="http://www.w3.org/2000/svg">
<path d="M12.4031 5.98499C11.7062 6.20469 10.9324 5.92232 10.5805 5.28134C10.0551 4.32477 9.00111 3.42482 7.14459 3.42482C5.15822 3.42482 3.7781 4.74907 3.7781 6.23942C3.7781 7.48138 4.55045 8.41907 6.06798 8.75051L8.88258 9.32959C12.3314 10.0196 14.1803 12.1993 14.1803 14.9588C14.1803 17.9938 11.7243 20.8907 7.25482 20.8907C3.26547 20.8907 1.00277 18.8251 0.109615 16.5541C-0.230884 15.6881 0.251554 14.7172 1.14621 14.4612L1.23077 14.4371C2.00086 14.2174 2.81172 14.61 3.11824 15.3491C3.71846 16.7957 5.08499 17.9115 7.25482 17.9115C9.60057 17.9115 10.8138 16.7247 10.8138 15.2072C10.8138 13.938 9.87614 12.9173 8.19252 12.5587L5.43379 11.9788C2.45385 11.3718 0.46748 9.41263 0.46748 6.48781C0.46748 3.20437 3.47535 0.5 7.11741 0.5C10.5171 0.5 12.3842 2.03187 13.3076 3.71021C13.7892 4.58751 13.3566 5.68526 12.4031 5.98499Z" fill="#1B1B1B"/>
<path d="M17.2721 18.8908V8.62676C17.2721 7.75022 17.9886 7.04053 18.8727 7.04053C19.7568 7.04053 20.4732 7.75097 20.4732 8.62676V18.8908C20.4732 19.7674 19.7568 20.477 18.8727 20.477C17.9886 20.4778 17.2721 19.7674 17.2721 18.8908Z" fill="#1B1B1B"/>
<path d="M26.7367 13.7445C26.7367 16.4489 28.4747 17.9664 30.489 17.9664C31.9469 17.9664 32.8582 17.259 33.3799 16.4851C33.7581 15.9242 34.4814 15.7105 35.1179 15.9408C36.0404 16.2753 36.4044 17.3934 35.8464 18.202C34.831 19.6742 33.0635 20.8905 30.489 20.8905C26.5435 20.8905 23.5356 17.8275 23.5356 13.7438C23.5356 9.60494 26.5435 6.625 30.406 6.625C33.0628 6.625 34.84 7.84733 35.8147 9.34975C36.3409 10.1614 35.98 11.2516 35.0718 11.5838L35.0205 11.6026C34.3636 11.8427 33.6109 11.6147 33.2387 11.0228C32.7381 10.2263 31.8631 9.57776 30.4339 9.57776C28.4747 9.57851 26.7367 11.0409 26.7367 13.7445Z" fill="#1B1B1B"/>
<path d="M39.5114 18.8769V2.10106C39.5114 1.21697 40.2369 0.500488 41.1323 0.500488C42.0277 0.500488 42.7533 1.21697 42.7533 2.10106V18.8769C42.7533 19.761 42.0277 20.4775 41.1323 20.4775C40.2369 20.4775 39.5114 19.761 39.5114 18.8769Z" fill="#1B1B1B"/>
<path d="M59.7363 13.7448C59.7363 17.8836 56.7843 20.8915 52.7557 20.8915C48.755 20.8915 45.8022 17.8844 45.8022 13.7448C45.8022 9.63385 48.755 6.62598 52.7557 6.62598C56.7843 6.62673 59.7363 9.63385 59.7363 13.7448ZM56.508 13.7448C56.508 10.9581 54.7421 9.52362 52.7557 9.52362C50.7965 9.52362 49.0034 10.9581 49.0034 13.7448C49.0034 16.5314 50.7972 18.0218 52.7557 18.0218C54.7421 18.0218 56.508 16.5594 56.508 13.7448Z" fill="#1B1B1B"/>
<path d="M18.3939 3.04274C17.9137 3.53499 17.7717 3.84982 17.8042 4.30432C17.8661 5.1635 18.5486 5.49569 19.0854 5.45643C19.3187 5.43982 19.5739 5.39603 20.1266 4.92341L22.1175 3.22997C22.649 2.78529 22.9177 2.28322 22.883 1.80229C22.8468 1.2972 22.4557 0.436519 21.5203 0.503713C20.9601 0.544482 20.4557 1.03824 20.0178 1.47614L18.3939 3.04274Z" fill="#1B1B1B"/>
<path d="M75.2421 12.1124L71.6318 12.1305C71.4332 12.1313 71.2716 11.9712 71.2716 11.7742V8.17438C71.2716 7.21252 70.4819 6.43262 69.5072 6.43262C68.5325 6.43262 67.7428 7.21252 67.7428 8.17438V11.7953C67.7428 11.9916 67.5835 12.1509 67.3865 12.1516L63.9286 12.169C62.963 12.1735 62.1838 12.9648 62.1891 13.9349C62.1936 14.9051 62.9803 15.688 63.9467 15.6835L67.3834 15.6661C67.582 15.6654 67.7436 15.8254 67.7436 16.0225V19.4433C67.7436 20.4052 68.5333 21.1851 69.508 21.1851C70.4827 21.1851 71.2724 20.4052 71.2724 19.4433V16.0021C71.2724 15.8058 71.4317 15.6465 71.6287 15.6457L75.2602 15.6276C76.2259 15.6231 77.005 14.8319 76.9997 13.8617C76.9944 12.8908 76.2077 12.1079 75.2421 12.1124Z" fill="#1B1B1B"/>
</svg>
